<?xml version="1.0" encoding="UTF-8" standalone="no"?>
<!-- Created with Inkscape (http://www.inkscape.org/) -->

<svg
   xmlns:dc="http://purl.org/dc/elements/1.1/"
   xmlns:cc="http://creativecommons.org/ns#"
   xmlns:rdf="http://www.w3.org/1999/02/22-rdf-syntax-ns#"
   xmlns:svg="http://www.w3.org/2000/svg"
   xmlns="http://www.w3.org/2000/svg"
   xmlns:sodipodi="http://sodipodi.sourceforge.net/DTD/sodipodi-0.dtd"
   xmlns:inkscape="http://www.inkscape.org/namespaces/inkscape"
   version="1.0"
   width="400"
   height="146.87796"
   id="svg1894"
   sodipodi:version="0.32"
   inkscape:version="0.91 r13725"
   sodipodi:docname="clef.svg"
   inkscape:output_extension="org.inkscape.output.svg.inkscape">
  <metadata
     id="metadata13">
    <rdf:RDF>
      <cc:Work
         rdf:about="">
        <dc:format>image/svg+xml</dc:format>
        <dc:type
           rdf:resource="http://purl.org/dc/dcmitype/StillImage" />
        <dc:title></dc:title>
      </cc:Work>
    </rdf:RDF>
  </metadata>
  <sodipodi:namedview
     inkscape:window-height="751"
     inkscape:window-width="1364"
     inkscape:pageshadow="2"
     inkscape:pageopacity="0.0"
     guidetolerance="10.0"
     gridtolerance="10.0"
     objecttolerance="10.0"
     borderopacity="1.0"
     bordercolor="#666666"
     pagecolor="#ffffff"
     id="base"
     showgrid="false"
     inkscape:zoom="1.6067761"
     inkscape:cx="171.76739"
     inkscape:cy="73.438979"
     inkscape:window-x="0"
     inkscape:window-y="15"
     inkscape:window-maximized="0"
     inkscape:current-layer="g2397" />
  <defs
     id="defs1896" />
  <g
     transform="matrix(1.0040233,0,0,1.0040233,-241.74172,-418.06036)"
     id="g2397">
    <g
       transform="matrix(0.42911283,0,0,0.1800985,239.39238,415.48387)"
       id="g1934">
      <path
         d="m 4.2160405,395.78396 791.5679095,0"
         id="path11"
         style="fill:none;fill-rule:evenodd;stroke:#131516;stroke-width:4.03443909"
         inkscape:connector-curvature="0" />
      <path
         d="m 4.2160405,635.78396 791.5679095,0"
         id="path13"
         style="fill:none;fill-rule:evenodd;stroke:#131516;stroke-width:4.03443909"
         inkscape:connector-curvature="0" />
      <path
         d="m 4.2160405,515.78396 791.5679095,0"
         id="path15"
         style="fill:none;fill-rule:evenodd;stroke:#131516;stroke-width:4.03443909"
         inkscape:connector-curvature="0" />
      <path
         d="m 4.2160405,275.78396 791.5679095,0"
         id="path17"
         style="fill:none;fill-rule:evenodd;stroke:#131516;stroke-width:4.03443909"
         inkscape:connector-curvature="0" />
      <path
         d="m 4.2160405,155.78396 791.5679095,0"
         id="path19"
         style="fill:none;fill-rule:evenodd;stroke:#131516;stroke-width:4.03443909"
         inkscape:connector-curvature="0" />
    </g>
    <path
       d="m 276.2779,497.09043 c -2.24511,0.46047 -4.32574,1.69245 -6.31163,3.65498 -1.98835,1.99855 -3.05276,4.27807 -3.22675,6.80003 -0.10937,1.58518 0.30802,3.42395 1.22355,5.40567 0.91302,2.0178 2.40503,3.5325 4.40129,4.57524 0.67618,0.19144 0.97633,0.57414 0.94153,1.07854 -0.0124,0.18017 -0.27763,0.34284 -0.90149,0.44459 -3.22903,-1.05541 -5.81567,-3.00765 -7.72871,-5.78221 -1.91057,-2.81055 -2.78512,-5.91165 -2.61875,-9.37531 0.36437,-3.70339 1.72248,-7.08478 4.07182,-10.10822 2.38796,-3.05692 5.32519,-5.13481 8.8117,-6.23358 l -1.60931,-12.9618 c -5.87944,4.22778 -10.72407,8.70799 -14.57495,13.51017 -3.84838,4.76612 -6.02931,10.0817 -6.57893,15.94428 -0.10925,2.63498 0.25596,5.23034 1.09807,7.75 0.83963,2.5557 2.20226,4.89407 4.08285,7.0872 3.7998,4.35271 8.96163,6.84463 15.41078,7.50689 2.21281,0.008 4.58745,-0.22647 7.16002,-0.70056 l -3.65109,-28.59591 z m 2.62491,-0.18084 3.72202,28.09408 c 5.71541,-1.85005 8.83161,-6.52188 9.34367,-13.94357 -0.15353,-2.50836 -0.72165,-4.79188 -1.81276,-6.85818 -1.05248,-2.09975 -2.53207,-3.7946 -4.47481,-5.08707 -1.94274,-1.29243 -4.17803,-2.02586 -6.77812,-2.20526 z m -4.81791,-37.97971 c 1.2414,-0.63831 2.70068,-1.80456 4.30309,-3.46777 1.59992,-1.62716 3.18608,-3.58105 4.7174,-5.79215 1.56995,-2.24462 2.85351,-4.54519 3.8506,-6.90172 0.99463,-2.32052 1.54846,-4.56286 1.69265,-6.65246 0.0621,-0.9007 0.0521,-1.80637 -0.0738,-2.61144 -0.055,-1.30698 -0.3826,-2.34315 -1.02148,-3.07505 -0.64141,-0.69584 -1.48324,-1.11592 -2.5666,-1.19066 -2.16676,-0.14951 -4.20876,1.04891 -6.12609,3.59536 -1.49524,2.2136 -2.80362,4.87447 -3.81187,7.91801 -1.04682,3.0771 -1.73003,6.14309 -2.01853,9.2725 -0.0655,3.57923 0.31097,6.53735 1.05466,8.90538 z m -2.41922,1.93265 c -1.22239,-5.94863 -1.71504,-11.95551 -1.47803,-18.02062 0.30459,-3.88852 0.95288,-7.49989 1.94486,-10.83417 0.9559,-3.33676 2.20451,-6.18275 3.75074,-8.61 1.51017,-2.42975 3.19471,-4.23206 5.01758,-5.40945 1.63236,-1.04572 2.79411,-1.58092 3.408,-1.53859 0.46949,0.0324 0.85431,0.23994 1.19303,0.58912 0.33875,0.34918 0.77094,0.92197 1.29903,1.68241 3.87728,6.38523 5.53692,13.8844 4.94533,22.45899 -0.28089,4.07112 -1.09599,7.9968 -2.45276,11.88509 -1.31819,3.85477 -3.12953,7.49449 -5.42905,10.84712 -2.33811,3.38622 -5.00501,6.2791 -8.03934,8.71227 l 1.94573,14.39677 c 1.60138,-0.0705 2.69471,-0.13985 3.3086,-0.0975 2.74452,0.18938 5.1604,0.93526 7.35592,2.24516 2.1955,1.30988 4.03872,2.99362 5.49093,5.08478 1.4547,2.05514 2.52841,4.37358 3.22109,6.95533 0.65661,2.57925 0.94459,5.24167 0.75571,7.97978 -0.29334,4.25129 -1.68127,8.06504 -4.16133,11.40517 -2.48006,3.34034 -6.01498,5.66648 -10.64333,7.01219 0.16712,1.78528 0.49617,4.3782 1.02834,7.70896 0.49357,3.3645 0.8538,6.03201 1.08072,8.00219 0.22685,1.97044 0.24207,3.85399 0.11529,5.69142 -0.19636,2.84609 -1.05648,5.32062 -2.58286,7.45983 -1.5625,2.13646 -3.55964,3.73607 -6.02755,4.79663 -2.43181,1.06305 -5.07415,1.49611 -7.8909,1.30163 -3.97234,-0.27408 -7.36207,-1.63012 -10.17163,-4.03208 -2.80707,-2.43827 -4.18972,-5.53803 -4.07068,-9.36705 0.22516,-1.68579 0.73176,-3.24361 1.55842,-4.70695 0.82662,-1.46337 1.88616,-2.62089 3.21472,-3.47033 1.29495,-0.88822 2.81033,-1.29029 4.51508,-1.28122 1.40836,0.097 2.71715,0.5857 3.92889,1.42934 1.17315,0.87741 2.11222,1.99186 2.77858,3.37736 0.63026,1.38277 0.92557,2.88741 0.8162,4.47269 -0.14664,2.12561 -0.99315,3.87716 -2.53956,5.25459 -1.54639,1.37747 -3.44032,2.00697 -5.64317,1.85482 l -0.83056,-0.0572 c 1.25925,2.25888 3.49336,3.53506 6.70734,3.75698 1.62502,0.11211 3.31106,-0.13351 5.01697,-0.66757 1.7445,-0.56729 3.21502,-1.37089 4.48626,-2.4415 1.27124,-1.07063 2.15023,-2.24074 2.56471,-3.51543 0.71583,-1.43462 1.1464,-3.46829 1.32288,-6.02619 0.11931,-1.72936 0.0581,-3.47107 -0.14762,-5.22286 -0.20821,-1.71578 -0.55717,-4.02051 -1.04942,-6.87791 -0.49473,-2.82141 -0.85117,-5.01807 -1.03815,-6.51518 -2.20403,0.39098 -4.46287,0.52473 -6.81014,0.36275 -3.93622,-0.27182 -7.6011,-1.32102 -10.99213,-3.1839 -3.39103,-1.86287 -6.30645,-4.30843 -8.7799,-7.37515 -2.43735,-3.06412 -4.27203,-6.44865 -5.49908,-10.22566 -1.19345,-3.73847 -1.68832,-7.60976 -1.45101,-11.57529 0.39799,-3.66485 1.32771,-7.14821 2.85642,-10.37305 1.5312,-3.26087 3.4111,-6.31668 5.67336,-9.12891 2.2622,-2.81227 4.57922,-5.36731 6.94861,-7.62914 2.40303,-2.22335 5.5394,-5.08386 9.47886,-8.54053 z"
       id="path9"
       style="fill:#131516;fill-rule:evenodd;stroke:#131516;stroke-width:0.06121717"
       inkscape:connector-curvature="0" />
  </g>
</svg>
